<?xml version="1.0" encoding="utf-8"?>
<!-- Generator: Adobe Illustrator 27.2.0, SVG Export Plug-In . SVG Version: 6.00 Build 0)  -->
<svg version="1.1" id="Layer_1" xmlns="http://www.w3.org/2000/svg" xmlns:xlink="http://www.w3.org/1999/xlink" x="0px" y="0px"
	 viewBox="0 0 512 512" style="enable-background:new 0 0 512 512;" xml:space="preserve">
<style type="text/css">
	.st0{fill:#212121;}
</style>
<g>
	<path class="st0" d="M168.19,354.17h75.62v12.19c0,42.21,14.43,75.04,33.79,99.89c-10.72,14.28-22.27,22.22-33.79,22.22
		c-29.24,0-58.64-51.15-74.2-127.11L168.19,354.17z M162.56,317.53h81.25l0-36.66c0-20.74,16.52-35.48,34.43-37.1
		c18.89-1.71,36.27-8.05,50.91-15.63c-0.28-11.15-0.85-22.08-1.68-32.76h-167.3l-0.81,11.93c-0.7,12.04-1.07,24.37-1.07,36.93
		C158.27,269.82,159.8,294.43,162.56,317.53z M483.23,195.38c3.03,14.94,4.7,30.38,4.87,46.18c-32.49-7.01-59.01-26.2-72.42-37.7
		c-5.07-4.35-11.03-7.17-17.26-8.47L483.23,195.38z M25.57,354.17l105.18-0.01c8.91,50.86,24.01,94.14,43.78,124.42
		c-62.6-18.49-114.72-61.35-145.38-117.6L25.57,354.17z M4.38,195.38l118.96,0.01c-1.13,15.88-1.71,32.2-1.71,48.85
		c0,20.26,0.86,40.04,2.52,59.12l1.4,14.17H10.68C3.41,294.39-0.5,269.77-0.5,244.24C-0.5,227.51,1.18,211.16,4.38,195.38z
		 M315.73,14.05l-2.64-4.16c73.73,21.76,132.94,77.38,159.65,148.84l-112.14,0.01C352.89,99.7,337.23,49,315.73,14.05z
		 M171.55,10.79l2.98-0.9c-21.51,32.96-37.51,81.32-46,138.11l-1.5,10.74l-112.14-0.01C41.22,88.23,99.2,33.16,171.55,10.79z
		 M243.81,0c32.21,0,64.63,62.09,78.51,151.05l1.14,7.69H164.15C177.33,65.69,210.67,0,243.81,0z M500.3,268.1
		c-46.58-4.22-83.89-31.43-100.52-45.7c-5.3-4.54-13.51-4.55-18.81,0c-16.64,14.27-53.96,41.49-100.53,45.71
		c-6.72,0.61-12.2,6.02-12.2,12.77l0.01,85.5c0,103.14,99.99,139.63,119.03,145.64h6.22c19.03-6.01,119.02-42.49,119.02-145.64
		l0-85.5C512.5,274.12,507.02,268.71,500.3,268.1z"/>
</g>
</svg>
