<?xml version="1.0" encoding="iso-8859-1"?>
<!-- Uploaded to: SVG Repo, www.svgrepo.com, Generator: SVG Repo Mixer Tools -->
<svg fill="#000000" height="800px" width="800px" version="1.1" id="Layer_1" xmlns="http://www.w3.org/2000/svg" xmlns:xlink="http://www.w3.org/1999/xlink" 
	 viewBox="0 0 512 512" xml:space="preserve">
<g>
	<g>
		<path d="M507.089,483.434l-17.711-17.63c3.053-23.423,7.313-87.089-29.475-123.767c-7.568-7.652-16.917-13.844-27.631-18.786
			c0.9-2.364,1.851-4.704,2.658-7.104l62.784-10.433c8.049-1.336,13.947-8.299,13.947-16.457v-66.738
			c0-8.158-5.899-15.121-13.947-16.457l-62.763-10.428c-2.758-8.261-6.04-16.212-9.798-23.783l37.008-51.748
			c4.757-6.643,3.998-15.75-1.782-21.519l-47.273-47.159c-5.768-5.763-14.849-6.49-21.475-1.771l-51.779,36.95
			c-7.636-3.78-15.545-7.055-23.659-9.803l-10.537-62.818c-1.347-8.039-8.31-13.926-16.457-13.926h-66.739
			c-8.158,0-15.121,5.904-16.457,13.953l-10.439,62.784c-8.071,2.732-16.001,6.012-23.723,9.825l-51.812-36.964
			c-6.637-4.72-15.718-3.992-21.485,1.786L51.39,98.602c-5.768,5.763-6.517,14.849-1.782,21.485l36.943,51.787
			c-3.802,7.702-7.071,15.647-9.776,23.767l-62.818,10.417C5.899,207.393,0,214.356,0,222.52v66.739
			c0,8.163,5.899,15.126,13.958,16.462l62.818,10.417c2.705,8.12,5.974,16.065,9.776,23.767l-36.943,51.787
			c-4.736,6.637-3.987,15.724,1.782,21.485l47.154,47.159c5.768,5.778,14.849,6.507,21.485,1.786l51.814-36.964
			c7.723,3.813,15.652,7.093,23.723,9.825l10.439,62.784c1.336,8.049,8.299,13.953,16.457,13.953h66.738
			c8.147,0,15.11-5.887,16.457-13.926l10.537-62.822c2.367-0.802,4.677-1.743,7.009-2.634c4.936,10.699,11.111,20.027,18.702,27.536
			c25.809,25.885,64.794,31.534,93.906,31.534c12.451,0,22.983-1.031,30.018-1.955l17.711,17.63
			c3.259,3.242,7.517,4.861,11.775,4.861c4.28,0,8.57-1.641,11.829-4.915C513.638,500.499,513.617,489.935,507.089,483.434z
			 M319.246,318.385c-0.141,0.141-0.283,0.288-0.424,0.435c-0.162,0.158-0.337,0.309-0.499,0.473
			c-16.783,16.494-38.974,25.581-62.492,25.581c-49.065,0-88.985-39.92-88.985-88.985s39.92-88.985,88.985-88.985
			s88.985,39.92,88.985,88.985C344.816,279.411,335.735,301.604,319.246,318.385z M419.559,396.024
			c-6.528-6.517-17.086-6.507-23.593,0.022c-6.507,6.517-6.507,17.086,0.022,23.593l38.487,38.417
			c-42.786-0.398-74.368-12.311-85.836-52.445c-5.35-18.837-5.783-41.068-3.693-60.617c30.078-3.221,70.118-0.813,91.321,20.59
			c16.769,16.729,21.445,45.077,21.687,68.766L419.559,396.024z"/>
	</g>
</g>
</svg>